<svg xmlns="http://www.w3.org/2000/svg" viewBox="0 0 16 16">
	<path fill="#2c3e50" d="M0 0h16v16H0z"/>
	<path d="M14.3 9.8l-.3-.1-.8.4.2.1.2.2-.2.2-5.1 2.8h-.7l-5.1-2.8-.1-.1.2-.2.2-.1-.8-.5-.3.1c-.3.2-.5.4-.5.7 0 .2.2.5.5.6L6.8 14c.3.2.7.4 1.2.4.4 0 .8-.3 1.2-.4l5.1-2.8c.3-.2.5-.4.5-.6 0-.4-.2-.6-.5-.8z" opacity=".4" fill="#fff"/>
	<path d="M14.3 7.4l-.5-.3-.8.4.5.3.2.2-.2.2L8.3 11l-.4.1-.4-.1-5-2.8-.1-.2.2-.2.5-.3-.8-.4-.6.3c-.3.2-.5.4-.5.6s.2.5.5.6l5.1 2.8c.3.2.7.4 1.2.4.4 0 .8-.3 1.2-.4l5.1-2.8c.3-.2.5-.4.5-.6 0-.2-.2-.4-.5-.6z" opacity=".7" fill="#fff"/>
	<path class="st2" d="M8 9.3c-.4 0-.8-.3-1.2-.4L1.7 6c-.3-.1-.5-.3-.5-.6s.2-.5.5-.6L6.8 2c1-.5 1.5-.4 2.3 0l5.1 2.8c.3.2.5.4.5.6s-.1.5-.4.6L9.2 8.9c-.4.2-.8.4-1.2.4z" fill="#fff"/>
</svg>
